PathFileType	3	(X/Y/Z)	D:\minhoCalibration\240510\subject3_KPNP\preferred\preferred12.trc
DataRate	CameraRate	NumFrames	NumMarkers	Units	OrigDataRate	OrigDataStartFrame	OrigNumFrames
200.0	200.0	21	10	mm	200.0	335	136	
Frame#	Time	Left_Ankle_Outer1			Left_Ankle_Inner1			Left_Knee_Outer1			Left_Knee_Inner1			Left_Wrist1			Right_Wrist1			Right_Knee_Inner1			Right_Knee_Outer1			Right_Ankle_Inner1			Right_Ankle_Outer1			
		X1	Y1	Z1	X2	Y2	Z2	X3	Y3	Z3	X4	Y4	Z4	X5	Y5	Z5	X6	Y6	Z6	X7	Y7	Z7	X8	Y8	Z8	X9	Y9	Z9	X10	Y10	Z10	
335	1.665	-322.14127	100.39583	-536.44507	-378.69852	107.34068	-532.08514	-250.6476	516.01575	-393.20004	-362.54294	517.39728	-380.36105	-256.44275	843.69183	-566.83777	-558.08307	883.10303	-754.3996	-556.92963	434.53671	-799.34045	-612.41998	501.33228	-872.76489	-464.09497	91.096687	-1014.1467	-522.58777	128.01843	-1086.755
336	1.67	-321.29315	100.55759	-536.22937	-377.79773	107.41739	-531.76312	-249.05869	515.05713	-390.75067	-360.73553	516.44812	-377.6499	-253.75566	845.04382	-563.93695	-559.07068	883.61487	-746.14435	-559.39154	433.72305	-794.7915	-617.00763	502.39081	-864.90723	-465.40259	95.26741	-1012.8817	-524.5957	132.62128	-1084.6284
337	1.675	-320.52417	100.51324	-535.9079	-376.85611	107.48002	-531.65265	-247.52449	514.07489	-388.29883	-358.35971	515.46185	-374.67801	-251.04675	846.51819	-561.09357	-559.96814	884.25922	-737.69843	-563.16418	433.86615	-786.2149	-621.89368	503.6424	-856.37659	-466.466	100.02924	-1010.91	-527.1441	137.85257	-1082.4319
338	1.68	-319.26672	100.47004	-535.95599	-375.88461	107.47902	-531.69104	-245.75665	512.96448	-386.06421	-355.88736	514.15997	-371.81982	-248.09082	848.30469	-558.21606	-560.71814	885.17126	-728.98596	-567.49194	434.76294	-777.25079	-627.05023	505.2532	-847.12854	-468.43259	105.25359	-1008.8092	-529.87134	143.14215	-1079.604
339	1.685	-318.17822	100.15687	-535.78711	-374.8367	107.42346	-531.59247	-243.92944	511.85428	-384.03979	-354.0394	513.11639	-369.33856	-245.0816	850.22626	-555.09686	-561.14471	886.19055	-719.91193	-570.6474	434.74695	-770.32281	-632.64691	507.01993	-837.05756	-470.69073	110.72794	-1006.259	-532.70807	148.95491	-1075.9823
340	1.69	-317.18008	99.842842	-535.55707	-373.76202	107.29241	-531.61249	-242.16354	510.62125	-382.06613	-351.79269	511.96509	-367.18695	-241.8336	852.39636	-552.23462	-561.19757	887.51294	-710.69025	-574.95215	435.49442	-760.49823	-638.54663	509.1619	-826.34381	-473.11914	117.00404	-1003.1201	-535.96838	155.17818	-1072.0398
341	1.695	-317.14481	98.798813	-534.79633	-372.51083	107.10442	-531.70496	-240.20947	509.2991	-380.26782	-349.99481	511.03149	-364.90353	-238.14612	854.96576	-549.51135	-560.9812	888.97137	-701.35193	-579.50537	436.88354	-749.70319	-644.88367	511.67096	-814.70886	-476.80307	123.33095	-999.44684	-539.69238	162.35149	-1067.4115
342	1.7	-316.10458	98.58828	-534.68719	-371.47229	107.0816	-531.7027	-238.16402	508.04871	-378.63336	-347.68161	509.61823	-362.99393	-234.6032	857.60956	-546.59259	-560.45105	890.5675	-691.76782	-584.52002	438.33533	-738.20605	-651.42438	514.35516	-802.2962	-480.2562	130.52025	-994.97351	-543.9519	169.92499	-1062.1819
343	1.705	-314.57028	98.490982	-534.81195	-370.31909	107.00278	-531.79175	-236.22636	506.78391	-377.03513	-345.42847	508.17947	-361.08911	-230.58035	860.36243	-543.72986	-559.59094	892.35815	-682.16168	-589.75549	440.13876	-725.9281	-658.2348	517.32068	-788.99493	-484.36154	138.33698	-989.95953	-549.00671	177.8468	-1056.1783
344	1.71	-313.62973	98.378387	-534.6106	-369.31393	107.17999	-531.77271	-234.10959	505.60324	-375.56024	-343.27322	506.85739	-359.29276	-226.56557	863.06628	-540.68628	-558.37177	894.31427	-672.35101	-595.37891	442.00845	-712.79517	-665.00635	520.67926	-774.84064	-488.3967	146.98427	-984.24249	-554.84467	186.52428	-1049.4404
345	1.715	-312.41861	98.410126	-534.32123	-368.49005	107.14401	-531.20715	-232.04187	504.67468	-374.01907	-340.74844	505.57352	-357.68637	-222.37752	865.90875	-537.72064	-557.00031	896.46338	-662.50928	-601.3429	444.00107	-698.93024	-671.56555	524.12793	-759.84711	-493.3862	156.09256	-978.198	-561.1908	195.65906	-1042.0629
346	1.72	-311.25232	98.604958	-534.07178	-366.86652	107.43069	-531.76086	-229.91945	503.74954	-372.52536	-338.19095	504.58466	-356.20404	-218.2843	868.60724	-534.71472	-555.44092	898.73755	-652.69806	-607.35858	446.04605	-684.45764	-677.70258	527.4137	-743.96606	-498.88519	165.80043	-971.52759	-568.31543	204.85004	-1033.683
347	1.725	-309.92392	98.911118	-533.76294	-365.69653	108.0457	-531.56879	-227.79868	503.15695	-371.07748	-335.55334	503.44235	-355.11917	-213.98178	871.41382	-532.08484	-553.91058	901.28796	-642.86981	-613.26874	448.40805	-669.05133	-683.52069	530.46179	-726.91766	-504.68195	176.1718	-964.26361	-576.32886	215.54562	-1024.0004
348	1.73	-308.8645	99.315643	-533.37238	-364.45178	108.71944	-531.1734	-225.40721	502.78812	-369.8284	-332.71054	503.07678	-353.85657	-208.99883	874.16571	-530.33527	-552.32159	904.28442	-632.94458	-619.04193	451.02734	-652.22937	-688.70972	533.78821	-709.04559	-510.52594	187.18274	-956.75232	-584.90417	226.36636	-1013.6183
349	1.735	-308.13428	99.57872	-532.66571	-363.14053	109.40799	-530.97803	-223.01555	502.71851	-368.71295	-329.68887	502.94125	-352.89905	-204.9438	876.89301	-527.56433	-550.89398	907.58887	-623.10382	-623.83459	454.28003	-634.30695	-693.0954	537.4892	-690.5257	-516.63855	199.24782	-948.5423	-593.74072	237.38399	-1002.7211
350	1.74	-306.48999	100.4174	-532.5694	-362.02405	110.29949	-530.56134	-220.26677	502.96347	-367.97778	-326.41339	502.91425	-352.22955	-200.83905	879.30133	-525.7179	-549.28149	911.34882	-613.14575	-627.4978	458.34341	-614.87451	-696.7218	541.60028	-670.97632	-522.89868	211.97565	-939.48279	-603.4693	248.27373	-990.49457
351	1.745	-305.42395	101.03281	-532.216	-360.95068	111.25635	-530.1311	-217.51744	503.31177	-367.46744	-323.09488	503.68018	-351.89603	-195.58385	882.284	-525.3609	-547.66925	915.32904	-603.18134	-629.54535	462.34421	-595.52271	-699.32635	545.68652	-650.48444	-529.23975	225.48967	-929.69196	-612.5163	260.35461	-977.99744
352	1.75	-304.62668	101.71044	-531.85602	-359.91443	112.32613	-529.67383	-214.38509	503.93616	-367.44489	-319.63449	504.70721	-351.07272	-191.00461	885.05951	-524.38715	-545.92084	919.76398	-592.87305	-630.22943	467.55234	-572.89874	-701.17493	550.02405	-627.95087	-534.87781	240.62912	-919.43878	-622.07593	272.63831	-963.8111
353	1.755	-303.79214	102.51989	-531.47461	-359.06204	113.39422	-529.15509	-210.99156	504.71677	-367.9324	-315.59982	505.49768	-351.18039	-186.0041	888.00488	-524.01996	-543.72668	924.47852	-582.341	-629.68927	472.75381	-552.60858	-702.78174	554.9765	-605.81854	-540.52649	256.44641	-908.23273	-631.27667	284.86502	-947.99231
354	1.76	-303.10089	103.48248	-531.22449	-358.3439	114.59091	-528.53375	-207.37782	505.64499	-368.9761	-311.77771	506.70819	-350.64713	-180.99792	890.96661	-524.52515	-541.21552	929.52594	-571.81287	-627.47662	478.10269	-531.8526	-703.92145	560.06653	-582.84875	-546.30652	273.52847	-895.50861	-639.14813	299.23453	-932.97211
355	1.765	-302.48212	104.46123	-530.86304	-357.84515	116.05379	-527.73303	-203.61711	506.70856	-370.49103	-307.40582	508.1228	-350.53043	-176.21326	894.04547	-525.37042	-538.03522	935.14929	-561.3631	-624.05914	483.73141	-511.27005	-704.53601	565.79797	-559.13757	-551.90607	290.4725	-881.31982	-646.46112	314.79324	-916.16901
